# xmcd
#
# Track frame offsets:
#	150
#	9662
#	27887
#	42505
#	56325
#	72572
#	86367
#	102295
#	110507
#	119275
#
# Disc length: 1801 seconds
#
# Revision: 1
# Processed by: cddbd v1.5.1PL0 Copyright (c) Steve Scherf et al.
# Submitted via: CDex 1.50Beta5
#
DISCID=7f07070a
DTITLE=MASTER OF THE GAME - CHAPTER 11
DYEAR=1900
DGENRE=
TTITLE0=MASTER CHAPTER 11
TTITLE1=MASTER CHAPTER 11
TTITLE2=MASTER CHAPTER 11
TTITLE3=MASTER CHAPTER 11
TTITLE4=MASTER CHAPTER 11
TTITLE5=MASTER CHAPTER 11
TTITLE6=MASTER CHAPTER 11
TTITLE7=MASTER CHAPTER 11
TTITLE8=MASTER CHAPTER 11
TTITLE9=MASTER CHAPTER 11
EXTD=
EXTT0=
EXTT1=
EXTT2=
EXTT3=
EXTT4=
EXTT5=
EXTT6=
EXTT7=
EXTT8=
EXTT9=
PLAYORDER=
